<svg width="271" height="543" viewBox="0 0 271 543" version="1.1" xmlns="http://www.w3.org/2000/svg" xmlns:xlink="http://www.w3.org/1999/xlink">
<title>Group 2.2</title>
<desc>Created using Figma</desc>
<g id="Canvas" transform="translate(1953 -45)">
<g id="Group 2.2">
<g id="Ellipse 2">
<use xlink:href="#path0_fill" transform="matrix(0.998267 0.0588499 -0.0602226 0.998185 -1919.36 489.874)" fill="#FFFFFF" fill-opacity="0.1"/>
</g>
<g id="leg2">
<g id="Vector 8">
<use xlink:href="#path1_fill" transform="matrix(0.999127 -0.0417723 0.0412562 0.999149 -1851.14 466.113)" fill="#4F79CF"/>
</g>
<g id="Vector">
<use xlink:href="#path2_fill" transform="matrix(0.999628 -0.0272567 0.0268786 0.999639 -1848.17 540.052)" fill="#293B5F"/>
</g>
<g id="Ellipse">
<use xlink:href="#path3_fill" transform="matrix(0.999628 -0.0272567 0.0268786 0.999639 -1833.56 459.911)" fill="#293B5F"/>
</g>
<g id="Vector">
<use xlink:href="#path4_stroke" transform="translate(-1812 477)" fill="#293B5F"/>
</g>
</g>
<g id="leg1">
<g id="Vector 8.1">
<use xlink:href="#path5_fill" transform="matrix(0.991724 -0.128386 0.127179 0.99188 -1887.27 450.636)" fill="#4F79CF"/>
</g>
<g id="Vector">
<use xlink:href="#path6_fill" transform="matrix(0.993777 -0.111385 0.109857 0.993947 -1877.75 524.157)" fill="#293B5F"/>
</g>
<g id="Ellipse">
<use xlink:href="#path7_fill" transform="translate(-1869.09 440.293)" fill="#293B5F"/>
</g>
<g id="Vector">
<use xlink:href="#path8_stroke" transform="translate(-1846 457)" fill="#293B5F"/>
</g>
</g>
<g id="Vector 6">
<use xlink:href="#path9_fill" transform="translate(-1876.84 361.544)" fill="#FDC3BF"/>
</g>
<g id="Vector 2">
<use xlink:href="#path10_fill" transform="translate(-1901.51 351.233)" fill="#FDC3BF"/>
</g>
<g id="Vector 6">
<use xlink:href="#path11_fill" transform="translate(-1872.56 330.373)" fill="#2C3963"/>
</g>
<g id="Vector 6">
<use xlink:href="#path12_fill" transform="translate(-1872.56 196.056)" fill="#4B78CD"/>
</g>
<g id="Vector 4">
<use xlink:href="#path13_fill" transform="translate(-1907.86 205.687)" fill="#FBBB3F"/>
</g>
<g id="Vector">
<use xlink:href="#path14_fill" transform="translate(-1868.28 136.894)" fill="#5C3E3E"/>
</g>
<g id="Vector 2">
<use xlink:href="#path15_fill" transform="translate(-1808.65 148.54)" fill="#FBBB3F"/>
</g>
<g id="Vector 5">
<use xlink:href="#path16_fill" transform="translate(-1858.36 201.924)" fill="#D6B4B4"/>
<mask id="mask0_outline_out">
<rect id="mask0_outline_inv" fill="white" x="-4" y="-5" width="42" height="34" transform="translate(-1858.36 201.924)"/>
<use xlink:href="#path16_fill" fill="black" transform="translate(-1858.36 201.924)"/>
</mask>
<g mask="url(#mask0_outline_out)">
<use xlink:href="#path17_stroke_2x" transform="translate(-1858.36 201.924)" fill="#FFFFFF"/>
</g>
</g>
<g id="Vector 2">
<use xlink:href="#path18_fill" transform="matrix(1 -2.78891e-17 2.76226e-17 1 -1864 163.766)" fill="#F2DADA"/>
</g>
<g id="Vector 3">
<use xlink:href="#path19_fill" transform="matrix(0.999951 -0.00989628 0.00975891 0.999952 -1883.99 58.6468)" fill="#0547A1"/>
</g>
<g id="Vector 4">
<use xlink:href="#path20_fill" transform="translate(-1857.59 200.312)" fill="#FBBB3F"/>
</g>
<g id="Vector 7">
<use xlink:href="#path21_fill" transform="matrix(0.997435 -0.0715843 0.0709037 0.997483 -1871.69 293.269)" fill="#FED1CE"/>
</g>
<g id="Vector 6">
<use xlink:href="#path22_fill" transform="translate(-1853.84 244.382)" fill="#F8B038"/>
</g>
<g id="Vector 2">
<use xlink:href="#path23_fill" transform="translate(-1908.13 238.371)" fill="#F7B138"/>
</g>
<g id="Vector">
<use xlink:href="#path24_fill" transform="translate(-1846.25 200.881)" fill="#F8B038"/>
</g>
<g id="Vector">
<use xlink:href="#path25_fill" transform="translate(-1874.27 205.707)" fill="#F8B038"/>
</g>
<g id="lines">
<g id="Vector 3">
<use xlink:href="#path26_stroke" transform="translate(-1952 63.2798)" fill="#000000" fill-opacity="0.2"/>
</g>
<g id="Vector 4">
<use xlink:href="#path27_stroke" transform="translate(-1776.89 80.3633)" fill="#000000" fill-opacity="0.2"/>
</g>
<g id="Vector 3">
<use xlink:href="#path28_stroke" transform="translate(-1807.38 47.042)" fill="#000000" fill-opacity="0.2"/>
</g>
</g>
<g id="Ellipse 2">
<use xlink:href="#path29_fill" transform="matrix(0.942716 0.333597 -0.33076 0.943715 -1787.82 69.6144)" fill="#0547A1"/>
</g>
<g id="Vector">
<use xlink:href="#path30_fill" transform="matrix(0.999576 -0.0291334 0.0288553 0.999584 -1955 49.8208)" fill="#FFFFFF" fill-opacity="0.5"/>
</g>
<g id="Rectangle 2">
<use xlink:href="#path31_fill" transform="matrix(0.940469 0.33988 -0.337066 0.941481 -1777.25 57.1612)" fill="#506DA9"/>
</g>
</g>
</g>
<defs>
<path id="path0_fill" d="M 166.812 46.2383C 166.812 71.775 129.47 92.4766 83.4059 92.4766C 37.3421 92.4766 0 71.775 0 46.2383C 0 20.7016 37.3421 0 83.4059 0C 129.47 0 166.812 20.7016 166.812 46.2383Z"/>
<path id="path1_fill" d="M 19.2653 11.1222C 16.9492 2.93553 20.2303 1.24793 22.1604 1.42746C 26.8247 0.350264 37.4079 -1.15781 42.426 1.42746C 47.4442 4.01272 47.412 7.17249 46.7687 8.42922C 42.1365 22.6482 41.9435 52.0555 42.426 64.9819C 44.7421 75.3229 41.461 78.9854 39.531 79.524L 30.3632 81.1398L 10.58 87.0643C -5.24656 87.0643 0.125453 78.8059 4.78977 74.6766L 21.6207 65.004C 25.9224 63.454 22.4821 25.6643 19.2653 11.1222Z"/>
<path id="path2_fill" d="M 13.5113 9.28041C 5.84367 12.2501 1.71496 8.53798 0.609061 6.31068C -0.275662 7.20163 -0.00532996 8.53799 0.240426 9.28041C 2.45228 14.1062 9.82492 14.1062 16.4603 11.1364L 30.4685 6.68185C 30.4685 6.68185 33.0489 6.31068 38.2098 5.19698C 42.2648 5.19698 43.002 0 43.002 0L 13.5113 9.28041Z"/>
<path id="path3_fill" d="M 29.9527 10.2113C 29.9527 15.8509 23.2475 20.4226 14.9763 20.4226C 6.70513 20.4226 0 15.8509 0 10.2113C 0 4.57176 6.70513 0 14.9763 0C 23.2475 0 29.9527 4.57176 29.9527 10.2113Z"/>
<path id="path4_stroke" d="M 0.563328 -0.0390788C 0.538706 0.274998 0.512392 0.609256 0.484797 0.962251L 1.48176 1.04019C 1.50934 0.687277 1.53561 0.35364 1.56027 0.0390788L 0.563328 -0.0390788ZM 0.330798 2.97322C 0.283987 3.60144 0.235569 4.27037 0.186723 4.97786L 1.18435 5.04673C 1.23305 4.34134 1.28133 3.67424 1.32803 3.04753L 0.330798 2.97322ZM 0.0532401 7.00264C 0.0128629 7.64648 -0.0270739 8.31553 -0.0658993 9.00856L 0.932535 9.06449C 0.971229 8.37381 1.01103 7.70699 1.05128 7.06523L 0.0532401 7.00264ZM -0.171806 11.0239C -0.203947 11.6793 -0.234711 12.3527 -0.263626 13.0433L 0.735499 13.0851C 0.76431 12.397 0.794965 11.7259 0.826993 11.0729L -0.171806 11.0239ZM -0.340848 15.0639C -0.363648 15.7239 -0.38453 16.3976 -0.403136 17.0843L 0.596497 17.1114C 0.615034 16.4272 0.635839 15.756 0.658556 15.0984L -0.340848 15.0639ZM -0.450192 19.1017C -0.463129 19.7639 -0.473792 20.4369 -0.481891 21.1201L 0.518039 21.1319C 0.526107 20.4514 0.53673 19.781 0.549618 19.1212L -0.450192 19.1017ZM -0.497969 23.1395C -0.500659 23.804 -0.500803 24.4772 -0.498156 25.1587L 0.501837 25.1548C 0.499199 24.476 0.499343 23.8055 0.502023 23.1435L -0.497969 23.1395ZM -0.48221 27.176C -0.47426 27.8415 -0.463549 28.5141 -0.449861 29.1934L 0.549936 29.1732C 0.536305 28.4967 0.525636 27.8269 0.517719 27.1641L -0.48221 27.176ZM -0.400809 31.2108C -0.381804 31.8776 -0.359842 32.5502 -0.334734 33.2284L 0.664582 33.1914C 0.63958 32.5161 0.617711 31.8463 0.598785 31.1823L -0.400809 31.2108ZM -0.251293 35.2462C -0.220765 35.914 -0.187101 36.5867 -0.150128 37.264L 0.848385 37.2095C 0.811576 36.5352 0.77806 35.8654 0.747664 35.2005L -0.251293 35.2462ZM -0.0308625 39.2818C 0.0116835 39.9502 0.0575336 40.6226 0.106849 41.2988L 1.1042 41.2261C 1.05511 40.553 1.00947 39.8836 0.967118 39.2183L -0.0308625 39.2818ZM 0.263023 43.3101C 0.317998 43.9773 0.376427 44.6477 0.438462 45.3213L 1.43425 45.2296C 1.37251 44.5593 1.31436 43.892 1.25965 43.228L 0.263023 43.3101ZM 0.633613 47.332C 0.701718 47.9993 0.773445 48.6693 0.848938 49.3418L 1.8427 49.2302C 1.76758 48.5612 1.69621 47.8945 1.62845 47.2304L 0.633613 47.332ZM 1.0849 51.3503C 1.16656 52.0156 1.252 52.683 1.34134 53.3522L 2.33255 53.2199C 2.24368 52.5542 2.15869 51.8903 2.07745 51.2284L 1.0849 51.3503ZM 1.61942 55.3528C 1.71551 56.0175 1.81555 56.6838 1.91967 57.3515L 2.90772 57.1974C 2.80419 56.5335 2.7047 55.8708 2.60914 55.2097L 1.61942 55.3528ZM 2.24259 59.3476C 2.35369 60.0102 2.46891 60.6739 2.58836 61.3384L 3.57259 61.1615C 3.45384 60.5008 3.33929 59.841 3.22883 59.1822L 2.24259 59.3476ZM 2.9577 63.3246C 3.02133 63.6557 3.08604 63.9869 3.15184 64.3182L 4.13268 64.1234C 4.06729 63.7941 4.00297 63.4649 3.93973 63.1359L 2.9577 63.3246Z"/>
<path id="path5_fill" d="M 19.2666 11.1215C 16.9503 2.93533 20.2317 1.24784 22.1619 1.42736C 26.8265 0.350241 37.4104 -1.15773 42.4289 1.42736C 47.4474 4.01245 47.4152 7.17201 46.7718 8.42866C 42.1394 22.6467 41.9463 52.0521 42.4289 64.9775C 44.7451 75.3179 41.4638 78.9801 39.5336 79.5187L 30.3652 81.1344L 10.5807 87.0585C -5.24691 87.0585 0.125462 78.8006 4.79009 74.6716L 21.6222 64.9997C 25.9242 63.4498 22.4836 25.6626 19.2666 11.1215Z"/>
<path id="path6_fill" d="M 13.6731 9.31811C 6.0049 12.2876 1.70949 8.32676 0.603497 6.09964C -0.281298 6.99053 -0.000303484 8.59638 0.245473 9.33874C 2.45751 14.1641 9.98647 14.1435 16.6224 11.174L 30.6317 6.71975C 30.6317 6.71975 33.0197 6.19558 38.181 5.08197C 42.2363 5.08197 42.8231 0 42.8231 0L 13.6731 9.31811Z"/>
<path id="path7_fill" d="M 29.9525 10.2114C 29.9525 15.851 23.2474 20.4227 14.9763 20.4227C 6.7051 20.4227 0 15.851 0 10.2114C 0 4.57179 6.7051 0 14.9763 0C 23.2474 0 29.9525 4.57179 29.9525 10.2114Z"/>
<path id="path8_stroke" d="M -0.361673 -0.0390788C -0.38653 0.277981 -0.408031 0.612662 -0.426182 0.964364L 0.572489 1.0159C 0.590232 0.672108 0.611178 0.346352 0.635268 0.0390788L -0.361673 -0.0390788ZM -0.490825 2.9705C -0.50063 3.59755 -0.502614 4.26297 -0.496714 4.96482L 0.50325 4.95642C 0.49741 4.26168 0.499387 3.60433 0.509052 2.98614L -0.490825 2.9705ZM -0.460896 6.97271C -0.443967 7.61135 -0.421518 8.27425 -0.393503 8.96034L 0.605664 8.91954C 0.577831 8.23791 0.555548 7.57978 0.538752 6.94621L -0.460896 6.97271ZM -0.299771 10.9544C -0.26553 11.6022 -0.226849 12.2675 -0.183693 12.9497L 0.814312 12.8866C 0.771365 12.2077 0.732886 11.5458 0.698835 10.9016L -0.299771 10.9544ZM -0.0481974 14.9437C -0.00117411 15.5926 0.0495803 16.2547 0.104094 16.9297L 1.10085 16.8492C 1.04655 16.1769 0.996006 15.5175 0.949187 14.8714L -0.0481974 14.9437ZM 0.272096 18.9149C 0.329641 19.566 0.390472 20.2277 0.454613 20.8995L 1.45009 20.8045C 1.38616 20.1349 1.32555 19.4756 1.26821 18.8269L 0.272096 18.9149ZM 0.65067 22.8833C 0.7173 23.5357 0.786901 24.1968 0.85949 24.8661L 1.85366 24.7583C 1.78129 24.091 1.71191 23.432 1.6455 22.7817L 0.65067 22.8833ZM 1.08046 26.8481C 1.15515 27.5006 1.23258 28.1602 1.31275 28.8266L 2.30559 28.7072C 2.22565 28.0426 2.14844 27.3849 2.07397 26.7344L 1.08046 26.8481ZM 1.55598 30.8022C 1.63811 31.4545 1.72279 32.1128 1.81004 32.7768L 2.80152 32.6466C 2.71451 31.9843 2.63005 31.3278 2.54814 30.6772L 1.55598 30.8022ZM 2.07469 34.7508C 2.16395 35.4037 2.25563 36.0616 2.34973 36.7243L 3.3398 36.5837C 3.24594 35.9227 3.1545 35.2665 3.06547 34.6153L 2.07469 34.7508ZM 2.635 38.6973C 2.73115 39.3506 2.8296 40.0082 2.93037 40.6699L 3.91897 40.5193C 3.81845 39.8593 3.72025 39.2033 3.62434 38.5517L 2.635 38.6973ZM 3.2352 42.6386C 3.33774 43.2901 3.44248 43.9452 3.54944 44.6038L 4.53651 44.4434C 4.42981 43.7865 4.32532 43.133 4.22304 42.4831L 3.2352 42.6386ZM 3.87358 46.5689C 3.98276 47.2209 4.09409 47.8759 4.20758 48.5338L 5.19302 48.3638C 5.07982 47.7076 4.96876 47.0541 4.85985 46.4037L 3.87358 46.5689ZM 4.55141 50.4983C 4.66696 51.1491 4.78459 51.8024 4.90432 52.4581L 5.88805 52.2784C 5.76862 51.6244 5.65127 50.9727 5.53601 50.3235L 4.55141 50.4983ZM 5.26681 54.4158C 5.38891 55.0662 5.51305 55.7188 5.63925 56.3732L 6.62116 56.1838C 6.49528 55.531 6.37144 54.8801 6.24965 54.2313L 5.26681 54.4158ZM 6.02167 58.3299C 6.1503 58.9794 6.28095 59.6306 6.41362 60.2832L 7.39358 60.084C 7.26124 59.433 7.13093 58.7835 7.00261 58.1356L 6.02167 58.3299ZM 6.81525 62.2335C 6.88311 62.5589 6.95148 62.8845 7.02034 63.2105L 7.99874 63.0038C 7.93006 62.6787 7.86187 62.3538 7.79418 62.0294L 6.81525 62.2335Z"/>
<path id="path9_fill" d="M 11.7671 87.6028L 4.27893 36.0085L 0 0L 22.4644 5.3744L 59.3702 49.4445L 62.0445 55.3563C 62.0445 55.3563 63.1143 58.581 62.0445 66.1052C 64.184 78.4663 67.964 100.273 68.9978 106.413C 70.0316 112.554 49.3881 115.895 48.138 108.026C 47.1123 101.569 46.8165 99.0464 46.5334 96.2018C 44.3939 85.9904 37.9755 53.744 37.9755 53.744L 29.3495 49.4445C 30.0627 53.5649 29.8162 62.7808 33.6284 87.6028C 31.6938 95.4777 13.9994 97.3338 11.7671 87.6028Z"/>
<path id="path10_fill" d="M 13.1504 23.6474C 0.313581 21.0677 -0.756152 6.80758 0.313581 0L 13.1504 0L 13.1504 23.6474Z"/>
<path id="path11_fill" d="M 18.2637 4.94198C 14.0892 3.78885 5.11385 1.18608 2.6091 0L 0 37.5591L 21.3947 42.9952L 18.2637 4.94198Z"/>
<path id="path12_fill" d="M 18.1855 141.841L 2.13947 138.319L 0 110.144L 1.06973 63.8552L 1.06973 32.6608L 12.3019 11.026L 17.8306 9.65168L 33.1617 3.98208L 45.1094 0L 59.4861 12.6214L 59.905 33.164L 37.4407 54.7988L 22.4644 75.4274L 18.1855 141.841Z"/>
<path id="path13_fill" d="M 31.1629 11.2839C 34.6542 6.12552 46.0738 1.61198 51.3472 0C 47.8559 2.14931 43.8278 10.2092 44.8009 16.6571C 50.8016 56.4193 43.0963 55.8819 40.9142 100.48C 39.1685 136.158 41.7096 184.482 44.2554 203.109C 9.88746 204.721 19.1613 160.661 16.9792 153.138C 6.0688 150.129 0.795441 147.048 0.0680884 146.153C -1.56848 86.5095 26.7987 17.7318 31.1629 11.2839Z"/>
<path id="path14_fill" d="M 0 18.6351C 8.73615 6.8114 32.092 -11.999 57.2307 10.5735C 58.0086 11.4642 58.7364 12.3605 59.4157 13.2607L 63.6491 11.6484C 64.7188 3.58677 77.5556 -7.16201 87.1832 7.88629C 93.0668 19.71 80.23 29.9213 70.6024 25.0844C 67.3932 26.1593 66.1448 26.6967 66.2954 27.2341C 71.6614 48.2983 55.484 67.0755 40.6499 63.2427L 38.5104 55.7185L 40.6499 46.0446C 38.5104 44.4322 34.4454 38.9504 35.3012 29.9213C 28.7045 34.7583 12.4089 39.2728 0 18.6351Z"/>
<path id="path15_fill" d="M 11.059 13.3639L 4.05496 0L 0 1.48487L 6.63539 15.5912L 11.059 13.3639Z"/>
<path id="path16_fill" d="M 29.661 0C 40.3584 11.6087 31.8007 20.4227 26.9869 22.0351C 20.0337 25.7971 12.5456 27.9469 2.91785 18.273C -4.056 11.2657 3.4529 5.3744 5.05748 2.6872C 14.0471 10.7488 24.4906 4.29952 29.661 0Z"/>
<path id="path17_stroke_2x" d="M 26.9869 22.0351L 26.0341 19.1904L 25.7877 19.2729L 25.5592 19.3965L 26.9869 22.0351ZM 29.661 0L 31.8672 -2.03295L 29.9351 -4.12964L 27.7429 -2.30667L 29.661 0ZM 5.05748 2.6872L 7.06038 0.453735L 4.34891 -1.97783L 2.48173 1.14918L 5.05748 2.6872ZM 2.91785 18.273L 0.791463 20.3892L 0.791463 20.3892L 2.91785 18.273ZM 27.9397 24.8797C 31.1381 23.8085 35.2169 20.579 36.9596 15.7925C 38.8234 10.6734 37.8127 4.41911 31.8672 -2.03295L 27.4549 2.03295C 32.2067 7.1896 32.2658 11.1466 31.3217 13.7398C 30.2564 16.6656 27.6494 18.6493 26.0341 19.1904L 27.9397 24.8797ZM 27.7429 -2.30667C 25.2972 -0.272874 21.7948 2.09582 18.0347 3.07605C 14.4369 4.01397 10.67 3.69072 7.06038 0.453735L 3.05457 4.92067C 8.43457 9.74529 14.3843 10.2282 19.5482 8.882C 24.5499 7.57811 28.8545 4.5724 31.5792 2.30667L 27.7429 -2.30667ZM 2.48173 1.14918C 2.39592 1.29287 2.21816 1.53912 1.87542 1.96791C 1.60747 2.30315 1.1007 2.91795 0.710699 3.41205C -0.152479 4.50563 -1.20852 5.94506 -1.96578 7.63068C -2.73537 9.34376 -3.24628 11.421 -2.87821 13.7314C -2.50783 16.0562 -1.29989 18.2878 0.791463 20.3892L 5.04423 16.1567C 3.64866 14.7545 3.18002 13.6219 3.04707 12.7874C 2.91181 11.9384 3.07082 11.061 3.50729 10.0894C 3.9561 9.09043 4.64227 8.11523 5.42037 7.12944C 5.851 6.58386 6.13964 6.24279 6.56221 5.71412C 6.91 5.27901 7.31788 4.75333 7.63323 4.22522L 2.48173 1.14918ZM 0.791463 20.3892C 5.96739 25.5899 10.9104 27.9387 15.8023 28.1886C 20.593 28.4334 24.807 26.6255 28.4145 24.6736L 25.5592 19.3965C 22.2136 21.2067 19.2069 22.3547 16.1084 22.1964C 13.1111 22.0433 9.4961 20.6299 5.04423 16.1567L 0.791463 20.3892Z"/>
<path id="path18_fill" d="M 30.7697 42.9274C -2.76837 54.3747 -1.94056 18.6973 1.73685 0C 14.4239 11.4473 27.6626 5.72366 32.0755 2.28946C 32.0755 2.28946 30.9723 10.3026 32.0755 12.592C 33.1788 14.8815 39.5955 24.6117 39.5955 24.6117C 43.5671 33.7696 35.3665 40.638 30.7697 42.9274Z"/>
<path id="path19_fill" d="M 19.2552 247.967C 2.13947 255.491 0 241.517 0 233.993L 4.27893 233.993C 4.27893 246.892 10.6973 245.817 15.5111 244.742C 17.1157 240.442 106.671 0 106.671 0L 110.347 1.15008L 19.2552 247.967Z"/>
<path id="path20_fill" d="M 66.2544 27.8422L 35.2748 0C 51.7972 16.5962 41.0722 28.3882 33.6443 32.2096C 5.38404 50.2252 2.49335 78.7421 0.492478 107.547C -1.13813 131.022 1.57779 185.433 4.2953 209.636C 34.7313 225.358 53.935 218.37 59.7323 212.911C 55.8191 188.89 53.3915 153.769 52.6668 139.211C 66.5805 145.762 70.4212 136.482 70.6024 131.022L 70.6024 116.282C 70.0589 94.6272 68.9719 50.2252 68.9719 45.8578C 68.9719 31.1178 68.066 32.2096 66.2544 27.8422Z"/>
<path id="path21_fill" d="M 7.62394 0.198243L 25.2952 9.91081L 25.2952 27.9138L 2.86628 13.6306C -3.8408 7.26684 2.67581 -1.42504 7.62394 0.198243Z"/>
<path id="path22_fill" d="M 0 71.4796L 1.6046 48.9071L 33.1617 61.2682C 41.1847 63.9554 42.7893 60.1933 42.7893 56.9687C 42.4327 55.7146 41.6126 47.9397 41.1847 26.872C 40.7568 5.80436 56.8741 0.179147 65.2537 0L 66.8583 82.2284C 68.9978 100.286 55.2695 98.7099 48.138 95.6644C 37.6189 91.0066 15.0832 81.261 9.09273 79.5412C 3.10223 77.8214 0 73.271 0 71.4796Z"/>
<path id="path23_fill" d="M 17.3152 120.387L 22.1291 0C 1.804 58.0436 -0.870299 104.801 0.199457 113.4C 5.01326 117.162 17.3152 120.387 17.3152 120.387Z"/>
<path id="path24_fill" d="M 10.6903 69.789C 55.2949 25.9853 36.9861 9.77542 24.3298 0C 29.0506 4.45462 37.9692 16.3336 28.3847 27.0989C 23.5925 31.5226 8.10992 38.6067 0 55.6828C 8.84718 54.5691 14.008 64.592 10.6903 69.789Z"/>
<path id="path25_fill" d="M 0 54.1979C 3.31769 49.7433 11.1819 50.9089 12.9021 53.26C 13.2708 49.1766 13.6394 46.0311 12.9021 30.0687C 12.1649 21.1594 10.6839 15.5677 11.4276 11.1365C 12.9943 1.80134 18.3256 0 17.3257 0C 0 6.68193 0 38.8542 0 54.1979Z"/>
<path id="path26_stroke" d="M 162.274 11.709L 162.198 12.2033L 162.484 11.2556L 162.274 11.709ZM 17.2697 145.672C 24.3871 121.357 40.4053 84.8513 64.775 55.9942C 89.1444 27.1375 121.791 6.00628 162.198 12.2033L 162.349 11.2148C 121.456 4.94317 88.4927 26.3593 64.011 55.349C 39.5295 84.3385 23.4557 120.979 16.31 145.391L 17.2697 145.672ZM 162.484 11.2556C 143.326 2.35025 111.955 -4.43851 80.6866 2.11061C 49.3872 8.66625 18.2189 28.5833 -0.46094 73.0265L 0.46094 73.414C 19.0079 29.2869 49.8994 9.58066 80.8916 3.08937C 111.915 -3.40845 143.067 3.33229 162.063 12.1624L 162.484 11.2556Z"/>
<path id="path27_stroke" d="M 0 0L 0.137422 -0.480745L -0.250445 0.432756L 0 0ZM 30.9573 195.262C 39.7978 170.946 49.0953 131.889 47.715 93.9936C 46.335 56.1052 34.2709 19.2556 0.250445 -0.432756L -0.250445 0.432756C 33.3362 19.8701 45.3411 56.2915 46.7157 94.03C 48.09 131.762 38.8276 170.687 30.0175 194.92L 30.9573 195.262ZM -0.137422 0.480745C 20.4664 6.37037 47.3777 20.4287 66.6657 44.9836C 85.939 69.5198 97.6294 104.572 87.7632 152.532L 88.7427 152.734C 98.6666 104.493 86.9121 69.1398 67.4521 44.3659C 48.0068 19.6107 20.8967 5.45332 0.137422 -0.480745L -0.137422 0.480745Z"/>
<path id="path28_stroke" d="M 31.0223 28.4843L 30.8829 28.0042L 30.4915 28.1178L 30.5238 28.524L 31.0223 28.4843ZM -0.304645 0.396474C 5.75838 5.05522 17.2625 14.2045 23.6244 26.5634L 24.5135 26.1057C 18.0387 13.5275 6.36526 4.26041 0.304645 -0.396474L -0.304645 0.396474ZM 23.6244 26.5634C 25.234 29.6902 26.5148 31.7055 27.5349 32.8872C 28.0432 33.4761 28.5122 33.8882 28.952 34.1181C 29.4023 34.3536 29.87 34.419 30.2991 34.2171C 30.7031 34.0271 30.961 33.65 31.1302 33.2582C 31.303 32.8585 31.4142 32.3732 31.4843 31.8587C 31.6247 30.8271 31.6113 29.583 31.5207 28.4447L 30.5238 28.524C 30.6115 29.625 30.6204 30.7905 30.4934 31.7239C 30.4297 32.1919 30.3348 32.578 30.2123 32.8616C 30.0862 33.1533 29.9596 33.2717 29.8734 33.3123C 29.8121 33.3411 29.6837 33.3723 29.4153 33.232C 29.1363 33.0861 28.7641 32.7808 28.2918 32.2338C 27.3508 31.1436 26.1132 29.2133 24.5135 26.1057L 23.6244 26.5634ZM 31.1616 28.9645C 35.1297 27.8127 42.8192 26.4204 51.0642 26.0144C 59.3233 25.6077 68.0491 26.1962 74.1411 28.9402L 74.5518 28.0285C 68.2348 25.1831 59.3101 24.6071 51.015 25.0156C 42.7059 25.4247 34.9378 26.8271 30.8829 28.0042L 31.1616 28.9645Z"/>
<path id="path29_fill" d="M 15.1033 5.31289C 15.1033 8.24711 11.7223 10.6258 7.55167 10.6258C 3.381 10.6258 0 8.24711 0 5.31289C 0 2.37866 3.381 0 7.55167 0C 11.7223 0 15.1033 2.37866 15.1033 5.31289Z"/>
<path id="path30_fill" d="M 261.551 190.229C 312.363 -11.8479 67.9283 -63.442 0 86.5032C 16.26 106.281 16.4026 142.755 14.4415 158.52C 59.7983 171.848 88.2533 204.919 96.8112 219.788C 143.88 210.759 186.669 223.55 202.18 231.074C 224.431 204.417 251.032 192.737 261.551 190.229Z"/>
<path id="path31_fill" d="M 0 0L 3.72631 0L 3.72631 20.4221L 0 20.4221L 0 0Z"/>
</defs>
</svg>
